<?xml version="1.0" encoding="utf-8"?>
<!-- Generator: Adobe Illustrator 25.0.1, SVG Export Plug-In . SVG Version: 6.00 Build 0)  -->
<svg version="1.1" xmlns="http://www.w3.org/2000/svg" xmlns:xlink="http://www.w3.org/1999/xlink" x="0px" y="0px"
	 viewBox="0 0 261 74" style="enable-background:new 0 0 261 74;" xml:space="preserve">
<style type="text/css">
	.st0{fill-rule:evenodd;clip-rule:evenodd;fill:#FFFFFF;}
	.st1{fill:none;stroke:#000000;stroke-width:2;stroke-miterlimit:10;}
	.st2{fill-rule:evenodd;clip-rule:evenodd;}
	.st3{fill:none;stroke:#FFFFFF;stroke-width:2;stroke-miterlimit:10;}
	.st4{fill:none;stroke:#FFFFFF;stroke-width:7;stroke-miterlimit:10;}
	.st5{fill:#FFFFFF;}
	.st6{fill:none;stroke:#FFFFFF;stroke-width:0.5;stroke-miterlimit:10;}
	.st7{fill:none;stroke:#FFFFFF;stroke-width:3;stroke-miterlimit:10;}
	.st8{fill:#FFFFFF;stroke:#FFFFFF;stroke-width:2;stroke-miterlimit:10;}
	.st9{fill:#FFFFFF;stroke:#050505;stroke-miterlimit:10;}
	.st10{fill:none;stroke:#FFFFFF;stroke-width:5;stroke-miterlimit:10;}
	.st11{fill:none;stroke:#FFFFFF;stroke-width:0.75;stroke-miterlimit:10;}
	.st12{fill:none;stroke:#FFFFFF;stroke-width:1.25;stroke-miterlimit:10;}
	.st13{fill-rule:evenodd;clip-rule:evenodd;fill:none;stroke:#FFFFFF;stroke-miterlimit:10;}
	.st14{fill:none;stroke:#FFFFFF;stroke-linecap:round;stroke-linejoin:round;stroke-miterlimit:10;}
	.st15{fill:none;stroke:#FFFFFF;stroke-miterlimit:10;}
	.st16{fill-rule:evenodd;clip-rule:evenodd;fill:none;stroke:#000000;stroke-miterlimit:10;}
	.st17{fill:none;stroke:#000000;stroke-width:0.75;stroke-miterlimit:10;}
	.st18{fill:none;stroke:#000000;stroke-width:0.5;stroke-miterlimit:10;}
	.st19{fill:none;stroke:#000000;stroke-width:1.25;stroke-miterlimit:10;}
	.st20{fill:none;stroke:#000000;stroke-miterlimit:10;}
	.st21{stroke:#000000;stroke-miterlimit:10;}
	.st22{fill:#FFFFFF;stroke:#000000;stroke-miterlimit:10;}
	.st23{fill:none;}
	.st24{fill:none;stroke:#000000;stroke-linecap:round;stroke-linejoin:round;stroke-miterlimit:10;}
	.st25{fill-rule:evenodd;clip-rule:evenodd;fill:none;stroke:#FFFFFF;stroke-width:2;stroke-miterlimit:10;}
	.st26{fill:none;stroke:#FFFFFF;stroke-width:2;stroke-linecap:round;stroke-linejoin:round;stroke-miterlimit:10;}
</style>
<g id="Layer_3">
</g>
<g id="Layer_1">
	<g>
		<path class="st5" d="M63.27,49.42c0,1.73,0.05,2.75,0.15,3.82l-1.33,0.05v-4.18c0-1.27,0.1-2.7,0.25-3.82h-0.1
			c-1.48,5.35-5.35,8.46-10.81,8.46c-7.14,0-11.78-5.46-11.78-13.87c0-8.21,4.74-13.72,11.78-13.72c5.41,0,9.28,3.21,10.76,8.52
			h0.15c-0.15-0.71-0.25-2.91-0.25-4.84V18.31c0-1.78-0.05-2.75-0.15-3.82h1.48c-0.1,1.07-0.15,2.04-0.15,3.82V49.42z M62.1,39.88
			c0-7.7-4.18-12.65-10.66-12.65c-6.53,0-10.61,4.9-10.61,12.65c0,7.8,4.08,12.8,10.61,12.8C58.02,52.68,62.1,47.79,62.1,39.88z"/>
		<path class="st5" d="M72.25,39.58v0.25c0,7.75,4.49,12.85,11.32,12.85c2.7,0,5.3-0.76,7.24-2.19c0.82-0.61,1.48-1.27,2.04-2.04
			l0.82,0.76c-0.46,0.56-1.27,1.33-1.94,1.84c-2.14,1.73-5.05,2.7-8.16,2.7c-7.39,0-12.49-5.66-12.49-13.92
			c0-8.57,4.59-13.77,12.09-13.77c7.14,0,11.17,4.54,11.17,12.6v0.92H72.25z M93.16,38.56c0-7.34-3.57-11.42-10.05-11.42
			c-6.37,0-10.4,4.28-10.81,11.42H93.16z"/>
	</g>
	<g>
		<path class="st5" d="M102.42,25.57h7.09l7.46,10.42V25.57h8.47V52.6h-7.13l-7.42-10.38V52.6h-8.47V25.57z M107.24,49.36V30.63
			l13.38,18.73h1.05V28.81h-1.05v18.73l-13.38-18.73h-1.05v20.55H107.24z"/>
		<path class="st5" d="M129.01,39.11c0-1.95,0.37-3.78,1.11-5.51c0.74-1.73,1.76-3.24,3.04-4.52c1.28-1.28,2.79-2.3,4.52-3.04
			c1.73-0.74,3.57-1.11,5.51-1.11c1.95,0,3.78,0.37,5.51,1.11c1.73,0.74,3.24,1.76,4.52,3.04c1.28,1.28,2.3,2.79,3.04,4.52
			c0.74,1.73,1.11,3.57,1.11,5.51c0,1.95-0.37,3.78-1.11,5.51c-0.74,1.73-1.76,3.24-3.04,4.52c-1.28,1.28-2.79,2.3-4.52,3.04
			c-1.73,0.74-3.57,1.11-5.51,1.11c-1.95,0-3.78-0.37-5.51-1.11c-1.73-0.74-3.24-1.76-4.52-3.04c-1.28-1.28-2.3-2.79-3.04-4.52
			C129.38,42.89,129.01,41.05,129.01,39.11z M132.82,39.11c0,1.43,0.27,2.78,0.81,4.03s1.28,2.36,2.23,3.3
			c0.95,0.95,2.05,1.69,3.3,2.23c1.26,0.54,2.6,0.81,4.03,0.81c1.43,0,2.78-0.27,4.03-0.81c1.26-0.54,2.36-1.28,3.3-2.23
			c0.95-0.95,1.69-2.05,2.23-3.3s0.81-2.6,0.81-4.03s-0.27-2.78-0.81-4.03s-1.28-2.36-2.23-3.3c-0.95-0.95-2.05-1.69-3.3-2.23
			c-1.26-0.54-2.6-0.81-4.03-0.81c-1.43,0-2.78,0.27-4.03,0.81c-1.26,0.54-2.36,1.28-3.3,2.23c-0.95,0.95-1.69,2.05-2.23,3.3
			S132.82,37.67,132.82,39.11z M143.19,48.43c-1.3,0-2.51-0.24-3.63-0.73c-1.12-0.49-2.11-1.16-2.96-2.01
			c-0.85-0.85-1.52-1.84-2.01-2.96c-0.49-1.12-0.73-2.33-0.73-3.63c0-1.3,0.24-2.51,0.73-3.63c0.49-1.12,1.15-2.11,2.01-2.96
			c0.85-0.85,1.84-1.52,2.96-2.01c1.12-0.49,2.33-0.73,3.63-0.73s2.51,0.24,3.63,0.73c1.12,0.49,2.11,1.16,2.96,2.01
			c0.85,0.85,1.52,1.84,2.01,2.96c0.49,1.12,0.73,2.33,0.73,3.63c0,1.3-0.24,2.51-0.73,3.63c-0.49,1.12-1.16,2.11-2.01,2.96
			s-1.84,1.52-2.96,2.01C145.7,48.19,144.49,48.43,143.19,48.43z M137.52,39.11c0,0.78,0.15,1.52,0.45,2.21
			c0.3,0.69,0.7,1.29,1.22,1.8c0.51,0.51,1.11,0.92,1.8,1.22c0.69,0.3,1.42,0.45,2.21,0.45c0.78,0,1.52-0.15,2.21-0.45
			c0.69-0.3,1.29-0.7,1.8-1.22c0.51-0.51,0.92-1.11,1.22-1.8c0.3-0.69,0.45-1.43,0.45-2.21s-0.15-1.52-0.45-2.21
			c-0.3-0.69-0.7-1.29-1.22-1.8c-0.51-0.51-1.11-0.92-1.8-1.22c-0.69-0.3-1.43-0.45-2.21-0.45c-0.78,0-1.52,0.15-2.21,0.45
			c-0.69,0.3-1.29,0.7-1.8,1.22c-0.51,0.51-0.92,1.11-1.22,1.8C137.67,37.59,137.52,38.32,137.52,39.11z"/>
		<path class="st5" d="M160.95,25.57h9.16V52.6h-9.16V25.57z M166.05,49.36V28.81H165v20.55H166.05z"/>
		<path class="st5" d="M173.55,44.21c0.59,0.19,1.22,0.34,1.86,0.45c0.54,0.14,1.15,0.24,1.84,0.32c0.69,0.08,1.38,0.12,2.09,0.12
			c1.24,0,1.86-0.46,1.86-1.38c0-0.35-0.19-0.71-0.57-1.07c-0.38-0.36-0.86-0.77-1.44-1.22c-0.58-0.45-1.2-0.94-1.86-1.48
			c-0.66-0.54-1.28-1.16-1.86-1.86c-0.58-0.7-1.06-1.49-1.44-2.37c-0.38-0.88-0.57-1.88-0.57-3.02c0-1.27,0.23-2.39,0.69-3.36
			s1.09-1.78,1.91-2.43c0.81-0.65,1.76-1.14,2.86-1.48s2.26-0.51,3.51-0.51c0.65,0,1.3,0.03,1.95,0.1c0.65,0.07,1.23,0.13,1.74,0.18
			c0.59,0.08,1.18,0.16,1.74,0.24v7.58c-0.22-0.03-0.46-0.05-0.73-0.08c-0.22-0.03-0.46-0.05-0.73-0.08
			c-0.27-0.03-0.55-0.04-0.85-0.04c-0.16,0-0.36,0.01-0.61,0.02c-0.24,0.01-0.47,0.05-0.69,0.1c-0.22,0.05-0.41,0.15-0.57,0.28
			c-0.16,0.14-0.24,0.32-0.24,0.57c0,0.22,0.18,0.49,0.55,0.81s0.81,0.7,1.34,1.14c0.53,0.43,1.11,0.93,1.74,1.5
			c0.63,0.57,1.22,1.22,1.74,1.95c0.53,0.73,0.97,1.55,1.34,2.47c0.36,0.92,0.55,1.95,0.55,3.08c0,1.19-0.19,2.3-0.57,3.34
			c-0.38,1.04-0.97,1.95-1.76,2.72s-1.82,1.38-3.06,1.82c-1.24,0.45-2.72,0.67-4.42,0.67c-1.03,0-1.98-0.05-2.86-0.14
			c-0.88-0.1-1.66-0.21-2.33-0.34c-0.78-0.14-1.5-0.3-2.15-0.49V44.21z M176.96,49.08c0.38,0.08,0.78,0.15,1.22,0.2
			c0.38,0.05,0.78,0.1,1.2,0.14s0.84,0.06,1.28,0.06c0.76,0,1.49-0.09,2.21-0.26c0.72-0.18,1.36-0.47,1.93-0.87s1.02-0.93,1.36-1.56
			c0.34-0.63,0.51-1.41,0.51-2.33c0-0.78-0.2-1.53-0.59-2.23c-0.39-0.7-0.89-1.38-1.5-2.03c-0.61-0.65-1.26-1.27-1.95-1.86
			c-0.69-0.59-1.34-1.2-1.95-1.8c-0.61-0.61-1.11-1.22-1.5-1.82c-0.39-0.61-0.59-1.24-0.59-1.88c0-0.97,0.31-1.72,0.93-2.25
			c0.62-0.53,1.62-0.79,3-0.79c0.22,0,0.44,0.01,0.67,0.02c0.23,0.01,0.45,0.03,0.67,0.06c0.22,0.03,0.43,0.04,0.65,0.04v-1.05
			c-0.19,0-0.39-0.01-0.61-0.04c-0.19-0.03-0.4-0.05-0.63-0.06c-0.23-0.01-0.47-0.02-0.71-0.02c-1.46,0-2.66,0.33-3.61,0.99
			c-0.95,0.66-1.42,1.7-1.42,3.1c0,0.76,0.2,1.47,0.59,2.13c0.39,0.66,0.89,1.31,1.5,1.95c0.61,0.64,1.26,1.25,1.95,1.84
			c0.69,0.59,1.34,1.2,1.95,1.8c0.61,0.61,1.11,1.24,1.5,1.88c0.39,0.65,0.59,1.32,0.59,2.03c0,1.3-0.44,2.28-1.32,2.96
			c-0.88,0.68-2.09,1.01-3.63,1.01c-0.92,0-1.76-0.07-2.51-0.2c-0.41-0.05-0.8-0.12-1.18-0.2V49.08z"/>
		<path class="st5" d="M193.86,25.57h15.93v7.09h-7.3v3h7.17v6.73h-7.17v3.12h7.58v7.09h-16.21V25.57z M207.07,49.36v-0.97h-8.11
			v-8.88h7.7v-0.97h-7.7v-8.75h8.11v-0.97h-9.16v20.55H207.07z"/>
	</g>
</g>
<g id="Layer_2">
</g>
</svg>
