<svg viewBox="0 0 512 512" xmlns="http://www.w3.org/2000/svg" xmlns:xlink="http://www.w3.org/1999/xlink" id="Capa_1" overflow="hidden"><g><g><path d="M492 236 20 236C8.954 236 0 244.954 0 256 0 267.046 8.954 276 20 276L492 276C503.046 276 512 267.046 512 256 512 244.954 503.046 236 492 236Z" stroke-width="1.33333" fill="#FFC000"/></g></g><g><g><path d="M492 76 20 76C8.954 76 0 84.954 0 96 0 107.046 8.954 116 20 116L492 116C503.046 116 512 107.046 512 96 512 84.954 503.046 76 492 76Z" stroke-width="1.33333" fill="#FFC000"/></g></g><g><g><path d="M492 396 20 396C8.954 396 0 404.954 0 416 0 427.046 8.954 436 20 436L492 436C503.046 436 512 427.046 512 416 512 404.954 503.046 396 492 396Z" stroke-width="1.33333" fill="#FFC000"/></g></g><g></g><g></g><g></g><g></g><g></g><g></g><g></g><g></g><g></g><g></g><g></g><g></g><g></g><g></g><g></g></svg>